<mxfile host="65bd71144e">
    <diagram id="s1LT1M2Y17bI-b_7Fl1Q" name="Page-1">
        <mxGraphModel dx="454" dy="585" grid="1" gridSize="10" guides="1" tooltips="1" connect="1" arrows="1" fold="1" page="1" pageScale="1" pageWidth="850" pageHeight="1100" background="none" math="0" shadow="0">
            <root>
                <mxCell id="0"/>
                <mxCell id="1" parent="0"/>
                <mxCell id="9" style="edgeStyle=orthogonalEdgeStyle;curved=1;html=1;exitX=1;exitY=0.5;exitDx=0;exitDy=0;strokeColor=#10739e;fillColor=#b1ddf0;fontColor=#000000;" parent="1" source="2" target="7" edge="1">
                    <mxGeometry relative="1" as="geometry"/>
                </mxCell>
                <mxCell id="2" value="Augment" style="whiteSpace=wrap;html=1;strokeColor=#10739e;fillColor=#b1ddf0;fontColor=#000000;" parent="1" vertex="1">
                    <mxGeometry x="70" y="170" width="80" height="30" as="geometry"/>
                </mxCell>
                <mxCell id="7" value="Link to TextUnits" style="whiteSpace=wrap;html=1;strokeColor=#10739e;fillColor=#b1ddf0;fontColor=#000000;" parent="1" vertex="1">
                    <mxGeometry x="200" y="170" width="110" height="30" as="geometry"/>
                </mxCell>
                <mxCell id="15" style="edgeStyle=orthogonalEdgeStyle;curved=1;html=1;exitX=1;exitY=0.5;exitDx=0;exitDy=0;strokeColor=#10739e;fillColor=#b1ddf0;fontColor=#000000;" edge="1" parent="1" target="16" source="7">
                    <mxGeometry relative="1" as="geometry">
                        <mxPoint x="320" y="185" as="sourcePoint"/>
                    </mxGeometry>
                </mxCell>
                <mxCell id="16" value="Avg. Embedding" style="whiteSpace=wrap;html=1;strokeColor=#10739e;fillColor=#b1ddf0;fontColor=#000000;" vertex="1" parent="1">
                    <mxGeometry x="350" y="170" width="110" height="30" as="geometry"/>
                </mxCell>
                <mxCell id="17" style="edgeStyle=orthogonalEdgeStyle;curved=1;html=1;strokeColor=#10739e;fillColor=#b1ddf0;fontColor=#000000;" edge="1" parent="1" target="18">
                    <mxGeometry relative="1" as="geometry">
                        <mxPoint x="460" y="185" as="sourcePoint"/>
                    </mxGeometry>
                </mxCell>
                <mxCell id="18" value="Document Table Emission" style="whiteSpace=wrap;html=1;strokeColor=#10739e;fillColor=#b1ddf0;fontColor=#000000;" vertex="1" parent="1">
                    <mxGeometry x="500" y="170" width="110" height="30" as="geometry"/>
                </mxCell>
            </root>
        </mxGraphModel>
    </diagram>
</mxfile>